{
  "accessors": [
    {
      "bufferView": 2,
      "componentType": 5126,
      "count": 6197,
      "max": [
        108.67706298828125,
        36.411956787109375,
        119.81169891357422
      ],
      "min": [
        -103.28936767578125,
        -95.4244155883789,
        -110.88468933105469
      ],
      "type": "VEC3"
    },
    {
      "bufferView": 2,
      "byteOffset": 74364,
      "componentType": 5126,
      "count": 6197,
      "max": [
        0.9999861121177673,
        1.0,
        1.0
      ],
      "min": [
        -0.9999600052833557,
        -1.0,
        -1.0
      ],
      "type": "VEC3"
    },
    {
      "bufferView": 3,
      "componentType": 5126,
      "count": 6197,
      "max": [
        1.0,
        0.9440279006958008,
        0.9999291896820068,
        1.0
      ],
      "min": [
        -1.0,
        -1.0,
        -0.9998444318771362,
        -1.0
      ],
      "type": "VEC4"
    },
    {
      "bufferView": 1,
      "componentType": 5126,
      "count": 6197,
      "max": [
        0.9986085891723633,
        1.0
      ],
      "min": [
        -4.574611267571527e-08,
        -1.4252488966803867e-08
      ],
      "type": "VEC2"
    },
    {
      "bufferView": 1,
      "byteOffset": 49576,
      "componentType": 5126,
      "count": 6197,
      "max": [
        0.0,
        0.0
      ],
      "min": [
        0.0,
        0.0
      ],
      "type": "VEC2"
    },
    {
      "bufferView": 1,
      "byteOffset": 99152,
      "componentType": 5126,
      "count": 6197,
      "max": [
        0.9986085891723633,
        1.0
      ],
      "min": [
        -4.574611267571527e-08,
        -1.4252488966803867e-08
      ],
      "type": "VEC2"
    },
    {
      "bufferView": 1,
      "byteOffset": 148728,
      "componentType": 5126,
      "count": 6197,
      "max": [
        0.9986085891723633,
        1.0
      ],
      "min": [
        -4.574611267571527e-08,
        -1.4252488966803867e-08
      ],
      "type": "VEC2"
    },
    {
      "bufferView": 0,
      "componentType": 5125,
      "count": 9612,
      "type": "SCALAR"
    },
    {
      "bufferView": 2,
      "byteOffset": 148728,
      "componentType": 5126,
      "count": 2132,
      "max": [
        110.48668670654297,
        10.147586822509766,
        107.46305847167969
      ],
      "min": [
        -105.18328857421875,
        -75.64659118652344,
        -108.9060287475586
      ],
      "type": "VEC3"
    },
    {
      "bufferView": 2,
      "byteOffset": 174312,
      "componentType": 5126,
      "count": 2132,
      "max": [
        0.9997329115867615,
        0.9999926090240479,
        0.9993482232093811
      ],
      "min": [
        -0.9993768930435181,
        -0.9999912977218628,
        -0.9994993805885315
      ],
      "type": "VEC3"
    },
    {
      "bufferView": 3,
      "byteOffset": 99152,
      "componentType": 5126,
      "count": 2132,
      "max": [
        0.9999937415122986,
        0.08203127235174179,
        0.9999918937683105,
        1.0
      ],
      "min": [
        -0.9999882578849792,
        -0.07306211441755295,
        -0.9999995231628418,
        -1.0
      ],
      "type": "VEC4"
    },
    {
      "bufferView": 1,
      "byteOffset": 198304,
      "componentType": 5126,
      "count": 2132,
      "max": [
        1.0,
        0.9910635352134705
      ],
      "min": [
        -1.9618711100122255e-09,
        -1.0059540045403992e-07
      ],
      "type": "VEC2"
    },
    {
      "bufferView": 1,
      "byteOffset": 215360,
      "componentType": 5126,
      "count": 2132,
      "max": [
        0.9999999403953552,
        0.9791740775108337
      ],
      "min": [
        -1.280361239253125e-08,
        -3.9620339009616146e-08
      ],
      "type": "VEC2"
    },
    {
      "bufferView": 1,
      "byteOffset": 232416,
      "componentType": 5126,
      "count": 2132,
      "max": [
        1.0,
        0.9910635352134705
      ],
      "min": [
        -1.9618711100122255e-09,
        -1.0059540045403992e-07
      ],
      "type": "VEC2"
    },
    {
      "bufferView": 0,
      "byteOffset": 38448,
      "componentType": 5125,
      "count": 4608,
      "type": "SCALAR"
    }
  ],
  "asset": {
    "extras": {
      "author": "AspectStudios (https://sketchfab.com/AspectStudio)",
      "license": "CC-BY-4.0 (http://creativecommons.org/licenses/by/4.0/)",
      "source": "https://sketchfab.com/3d-models/medieval-water-tub-13825d1524a7471ca213d39949062846",
      "title": "Medieval Water Tub"
    },
    "generator": "Sketchfab-16.72.0",
    "version": "2.0"
  },
  "bufferViews": [
    {
      "buffer": 0,
      "byteLength": 56880,
      "name": "floatBufferViews",
      "target": 34963
    },
    {
      "buffer": 0,
      "byteLength": 249472,
      "byteOffset": 56880,
      "byteStride": 8,
      "name": "floatBufferViews",
      "target": 34962
    },
    {
      "buffer": 0,
      "byteLength": 199896,
      "byteOffset": 306352,
      "byteStride": 12,
      "name": "floatBufferViews",
      "target": 34962
    },
    {
      "buffer": 0,
      "byteLength": 133264,
      "byteOffset": 506248,
      "byteStride": 16,
      "name": "floatBufferViews",
      "target": 34962
    }
  ],
  "buffers": [
    {
      "byteLength": 639512,
      "uri": "scene.bin"
    }
  ],
  "extensionsUsed": [
    "KHR_texture_transform",
    "KHR_materials_specular"
  ],
  "images": [
    {
      "uri": "textures/Rotten_Wood_baseColor.jpeg"
    },
    {
      "uri": "textures/Rotten_Wood_normal.png"
    },
    {
      "uri": "textures/Rusty_metal_baseColor.jpeg"
    },
    {
      "uri": "textures/Rusty_metal_metallicRoughness.png"
    },
    {
      "uri": "textures/Rusty_metal_normal.png"
    }
  ],
  "materials": [
    {
      "doubleSided": true,
      "extensions": {
        "KHR_materials_specular": {
          "specularColorFactor": [
            1.0,
            1.0,
            1.0
          ],
          "specularFactor": 0.0
        }
      },
      "name": "Rotten_Wood",
      "normalTexture": {
        "index": 1
      },
      "pbrMetallicRoughness": {
        "baseColorTexture": {
          "extensions": {
            "KHR_texture_transform": {
              "rotation": 1.5707963267948966,
              "scale": [
                4.000000000000002,
                4.000000000000002
              ]
            }
          },
          "index": 0
        },
        "metallicFactor": 0.0,
        "roughnessFactor": 0.8211145618000169
      }
    },
    {
      "doubleSided": true,
      "extensions": {
        "KHR_materials_specular": {
          "specularColorFactor": [
            1.0,
            1.0,
            1.0
          ],
          "specularFactor": 0.0
        }
      },
      "name": "Rusty_metal",
      "normalTexture": {
        "index": 4
      },
      "pbrMetallicRoughness": {
        "baseColorTexture": {
          "index": 2
        },
        "metallicRoughnessTexture": {
          "index": 3
        }
      }
    }
  ],
  "meshes": [
    {
      "name": "Cube_Rotten Wood_0",
      "primitives": [
        {
          "attributes": {
            "NORMAL": 1,
            "POSITION": 0,
            "TANGENT": 2,
            "TEXCOORD_0": 3,
            "TEXCOORD_1": 4,
            "TEXCOORD_2": 5,
            "TEXCOORD_3": 6
          },
          "indices": 7,
          "material": 0,
          "mode": 4
        }
      ]
    },
    {
      "name": "Cube_Rusty metal_0",
      "primitives": [
        {
          "attributes": {
            "NORMAL": 9,
            "POSITION": 8,
            "TANGENT": 10,
            "TEXCOORD_0": 11,
            "TEXCOORD_1": 12,
            "TEXCOORD_2": 13
          },
          "indices": 14,
          "material": 1,
          "mode": 4
        }
      ]
    }
  ],
  "nodes": [
    {
      "children": [
        1
      ],
      "matrix": [
        1.0,
        0.0,
        0.0,
        0.0,
        0.0,
        2.220446049250313e-16,
        -1.0,
        0.0,
        0.0,
        1.0,
        2.220446049250313e-16,
        0.0,
        0.0,
        0.0,
        0.0,
        1.0
      ],
      "name": "Sketchfab_model"
    },
    {
      "children": [
        2
      ],
      "matrix": [
        0.009999999776482582,
        0.0,
        0.0,
        0.0,
        0.0,
        0.0,
        0.009999999776482582,
        0.0,
        0.0,
        -0.009999999776482582,
        0.0,
        0.0,
        0.0,
        0.0,
        0.0,
        1.0
      ],
      "name": "WaterBucket.fbx"
    },
    {
      "children": [
        3
      ],
      "name": "RootNode"
    },
    {
      "children": [
        4,
        5
      ],
      "matrix": [
        1.0,
        0.0,
        0.0,
        0.0,
        0.0,
        1.0,
        0.0,
        0.0,
        0.0,
        0.0,
        1.0,
        0.0,
        -1.486050009727478,
        96.36109161376953,
        -8.613275527954102,
        1.0
      ],
      "name": "Cube"
    },
    {
      "mesh": 0,
      "name": "Cube_Rotten Wood_0"
    },
    {
      "mesh": 1,
      "name": "Cube_Rusty metal_0"
    }
  ],
  "samplers": [
    {
      "magFilter": 9729,
      "minFilter": 9987,
      "wrapS": 10497,
      "wrapT": 10497
    }
  ],
  "scene": 0,
  "scenes": [
    {
      "name": "Sketchfab_Scene",
      "nodes": [
        0
      ]
    }
  ],
  "textures": [
    {
      "sampler": 0,
      "source": 0
    },
    {
      "sampler": 0,
      "source": 1
    },
    {
      "sampler": 0,
      "source": 2
    },
    {
      "sampler": 0,
      "source": 3
    },
    {
      "sampler": 0,
      "source": 4
    }
  ]
}
